<svg xmlns="http://www.w3.org/2000/svg" viewBox="0 0 160 150"><style>.st0{display:none}.st1,.st2{display:inline}.st2{fill:#fff}.st3{fill:#bcbec0}.st4{fill-rule:evenodd;clip-rule:evenodd;fill:#b3d6f2}.st5{fill:#d1d3d4}.st6{fill:#b2b2b2}.st7{fill:none}.st8{fill:#333}.st9{fill:#a7a9ac}.st10{fill:#ffb900}.st11{fill:#11334b}.st12{fill:#45779e}.st13{fill:#235a89}.st14{fill:#1c4768}.st15{fill:#99bcd7}.st16{fill:#6597bf}.st17{clip-path:url(#SVGID_4_)}.st18{fill:#fff200}.st18,.st19{clip-path:url(#SVGID_6_)}.st20{fill:#8e562e}.st21{fill:#bb9167}.st22{fill:#71563b}.st23{fill-rule:evenodd;clip-rule:evenodd;fill:#bb9167}.st24{clip-path:url(#SVGID_8_)}.st25{fill-rule:evenodd;clip-rule:evenodd;fill:#282828}.st26{fill:#40c5af}.st27{fill:#002f33}.st28{fill:#fff}.st29{fill:#008770}.st30{fill:#005850}.st31{clip-path:url(#SVGID_10_)}.st32{fill:#fff880}.st32,.st33{clip-path:url(#SVGID_12_)}.st34{clip-path:url(#SVGID_14_)}.st35{clip-path:url(#SVGID_16_)}.st36{fill:#00b294}.st37{fill:#9080cf}.st38{fill:#522882}.st39{fill:#737373}.st40{fill:#505050}.st41{fill:#ff8c00}.st42{fill:#69afe5}.st43{fill:#c8c8c8}.st44{fill:#666}.st45{fill:#0078d4}.st46{fill:#a6a6a6}.st47{fill:#2488d8}.st48{fill:#3c3c3c}.st49{fill:#106ebe}.st50{fill:#005a93}.st51{fill:#212121}.st52{fill:#004578}.st53{fill:#b3d6f2}.st54{fill:#cfe0ee}.st55{fill:#eaeaea}.st56{fill:#deecf9}.st57{fill:#e9f0f7}.st58{fill:#f4f4f4}.st59{fill:#231f20}.st60{fill:#00abeb}.st61{fill:#e6e6e6}.st62{fill:#0078d4}.st62,.st63,.st64,.st65,.st66{fill-rule:evenodd;clip-rule:evenodd}.st64,.st65,.st66{fill:#2488d8}.st65,.st66{fill:#ffb900}.st66{fill:#69afe5}.st67{fill:#006761}.st68{fill:none;stroke:#6d6e71;stroke-width:3;stroke-miterlimit:10}.st69{fill:#75beff}.st70{fill:#107c10}.st71{fill:none;stroke:#737373;stroke-width:2;stroke-miterlimit:10}.st72{fill:#bad80a}.st73{clip-path:url(#SVGID_18_)}.st74{clip-path:url(#SVGID_20_)}.st75{fill:#69afe5}.st75,.st76{clip-path:url(#SVGID_22_)}.st77{fill:#282828}.st78{clip-path:url(#SVGID_24_)}.st79{fill:#69afe5}.st79,.st80{clip-path:url(#SVGID_26_)}.st81{fill:#f7d7c4}.st82{fill:#d8b094}.st83{fill-rule:evenodd;clip-rule:evenodd;fill:#f7d7c4}.st84{clip-path:url(#SVGID_28_)}.st85{clip-path:url(#SVGID_30_)}.st86{fill:#69afe5}.st86,.st87{clip-path:url(#SVGID_32_)}.st88{clip-path:url(#SVGID_34_)}.st89{clip-path:url(#SVGID_36_)}.st90{fill:#613d30}.st91{fill:none;stroke:#69afe5;stroke-width:2;stroke-miterlimit:10}.st92{clip-path:url(#SVGID_38_)}.st93{clip-path:url(#SVGID_40_)}.st94{fill:#69afe5}.st94,.st95{clip-path:url(#SVGID_42_)}.st96{clip-path:url(#SVGID_44_)}.st97{fill:#69afe5}.st97,.st98{clip-path:url(#SVGID_46_)}.st99{clip-path:url(#SVGID_48_)}.st100{clip-path:url(#SVGID_50_)}.st101{fill:#69afe5}.st101,.st102{clip-path:url(#SVGID_52_)}.st103{clip-path:url(#SVGID_54_)}.st104{clip-path:url(#SVGID_56_)}.st105{fill:#007596}.st106{fill:#f3f3f3}.st107{fill:#008272}.st108{fill:#f8d5b9}.st109{fill:#5c005c}.st110{fill:none;stroke:#fff;stroke-width:.0567;stroke-linecap:round;stroke-linejoin:round;stroke-miterlimit:10}.st111{fill:#409ae1}.st112{fill:#004880}.st113{fill:none;stroke:#666;stroke-width:2;stroke-miterlimit:10}.st114{fill:#009a83}.st115{fill:#00746a}.st116{fill:#90908f}.st117{fill:#b4a0ff}.st118,.st119,.st120{fill-rule:evenodd;clip-rule:evenodd;fill:#939393}.st119,.st120{fill:#e81123}.st120{fill:none;stroke:#fff;stroke-miterlimit:10}.st121{clip-path:url(#SVGID_58_)}.st122{fill:#8ec3ec}.st123{fill:none;stroke:#fff;stroke-width:2;stroke-miterlimit:10;stroke-dasharray:2,3}.st124{fill:#472176}.st125{fill:#4d4e4e}.st126{fill:#70553a}.st127{fill:#682a7b}.st128{fill:#9b9b9b}.st129{fill:#5e5e5e}.st130{fill:#a88663}.st131{fill:#4d4d4d}.st132{fill:#5c2d91}.st133{fill:#724aad}.st134{fill:#e24f01}.st135{fill:#007365}.st136{fill:#00a387}.st137{fill:#90c10c}.st138{fill:none;stroke:#fff;stroke-width:2;stroke-miterlimit:10;stroke-dasharray:2,2}.st139,.st140,.st141{clip-path:url(#SVGID_60_);fill:#fff}.st140,.st141{fill:#fff200}.st141{fill:#bad80a}.st142,.st143,.st144,.st145{clip-path:url(#SVGID_60_);fill:#65aa0d}.st143,.st144,.st145{fill:#f08400}.st144,.st145{fill:#bd3604}.st145{fill:none}.st146{clip-path:url(#SVGID_62_)}.st147{clip-path:url(#SVGID_64_)}.st148{fill:#69afe5}.st148,.st149{clip-path:url(#SVGID_66_)}.st150{clip-path:url(#SVGID_68_)}.st151{fill:#69afe5}.st151,.st152{clip-path:url(#SVGID_70_)}.st153{clip-path:url(#SVGID_72_)}.st154{clip-path:url(#SVGID_74_)}.st155{fill:#69afe5}.st155,.st156{clip-path:url(#SVGID_76_)}.st157{clip-path:url(#SVGID_78_)}.st158{clip-path:url(#SVGID_80_)}.st159,.st160{fill-rule:evenodd;clip-rule:evenodd;fill:#235a89}.st160{fill:#fff}.st161{clip-path:url(#SVGID_82_)}.st162{clip-path:url(#SVGID_84_)}.st163{fill:#69afe5}.st163,.st164{clip-path:url(#SVGID_86_)}.st165{clip-path:url(#SVGID_88_)}.st166{fill:#69afe5}.st166,.st167{clip-path:url(#SVGID_90_)}.st168{clip-path:url(#SVGID_92_)}.st169{clip-path:url(#SVGID_94_)}.st170{fill:#69afe5}.st170,.st171{clip-path:url(#SVGID_96_)}.st172{clip-path:url(#SVGID_98_)}.st173{clip-path:url(#SVGID_100_)}.st174{fill-rule:evenodd;clip-rule:evenodd;fill:#fff200}.st175{fill:none;stroke:#fff100;stroke-width:.72;stroke-miterlimit:8}.st176{fill-rule:evenodd;clip-rule:evenodd;fill:#fff880}.st177,.st178,.st179,.st180,.st181,.st182{fill-rule:evenodd;clip-rule:evenodd;fill:#f0e300}.st178,.st179,.st180,.st181,.st182{fill:#ccc000}.st179,.st180,.st181,.st182{fill:#ffcb40}.st180,.st181,.st182{fill:#f0ae00}.st181,.st182{fill:#c78e00}.st182{fill:#ff8c00}.st183,.st184,.st185,.st186,.st187,.st188{fill-rule:evenodd;clip-rule:evenodd;fill:#ffa940}.st184,.st185,.st186,.st187,.st188{fill:#f08400}.st185,.st186,.st187,.st188{fill:#ba6800}.st186,.st187,.st188{fill:#ee4d5a}.st187,.st188{fill:#d91021}.st188{fill:#a3111e}.st189,.st190,.st191,.st192,.st193,.st194{fill-rule:evenodd;clip-rule:evenodd;fill:#b4009e}.st190,.st191,.st192,.st193,.st194{fill:#c740b6}.st191,.st192,.st193,.st194{fill:#9e008b}.st192,.st193,.st194{fill:#850063}.st193,.st194{fill:#5c2d91}.st194{fill:#8562ad}.st195,.st196,.st197,.st198,.st199,.st200{fill-rule:evenodd;clip-rule:evenodd;fill:#522882}.st196,.st197,.st198,.st199,.st200{fill:#401467}.st197,.st198,.st199,.st200{fill:#409ae1}.st198,.st199,.st200{fill:#006fc8}.st199,.st200{fill:#005291}.st200{fill:#008272}.st201,.st202,.st203,.st204,.st205,.st206{fill-rule:evenodd;clip-rule:evenodd;fill:#40a195}.st202,.st203,.st204,.st205,.st206{fill:#007365}.st203,.st204,.st205,.st206{fill:#005850}.st204,.st205,.st206{fill:#107c10}.st205,.st206{fill:#4c9d4c}.st206{fill:#0e6d0e}.st207,.st208,.st209,.st210,.st211,.st212{fill-rule:evenodd;clip-rule:evenodd;fill:#106110}.st208,.st209,.st210,.st211,.st212{fill:#e3008c}.st209,.st210,.st211,.st212{fill:#ea40a9}.st210,.st211,.st212{fill:#d40083}.st211,.st212{fill:#9c005f}.st212{fill:#b4a0ff}.st213,.st214,.st215,.st216,.st217,.st218{fill-rule:evenodd;clip-rule:evenodd;fill:#c7b8ff}.st214,.st215,.st216,.st217,.st218{fill:#a996f0}.st215,.st216,.st217,.st218{fill:#9080cf}.st216,.st217,.st218{fill:#00bcf2}.st217,.st218{fill:#40cdf5}.st218{fill:#00b0e3}.st219,.st220,.st221,.st222,.st223,.st224{fill-rule:evenodd;clip-rule:evenodd;fill:#0086ad}.st220,.st221,.st222,.st223,.st224{fill:#002050}.st221,.st222,.st223,.st224{fill:#40587c}.st222,.st223,.st224{fill:#001a41}.st223,.st224{fill:#001129}.st224{fill:#00b294}.st225,.st226,.st227,.st228,.st229,.st230{fill-rule:evenodd;clip-rule:evenodd;fill:#40c5af}.st226,.st227,.st228,.st229,.st230{fill:#00a387}.st227,.st228,.st229,.st230{fill:#008770}.st228,.st229,.st230{fill:#bad80a}.st229,.st230{fill:#cbe247}.st230{fill:#adc909}.st231,.st232,.st233,.st234,.st235,.st236{fill-rule:evenodd;clip-rule:evenodd;fill:#91a80a}.st232,.st233,.st234,.st235,.st236{fill:#d83b01}.st233,.st234,.st235,.st236{fill:#e26c41}.st234,.st235,.st236{fill:#bd3604}.st235,.st236{fill:#9c2801}.st236{fill:#a80000}.st237,.st238,.st239,.st240,.st241,.st242{fill-rule:evenodd;clip-rule:evenodd;fill:#be4040}.st238,.st239,.st240,.st241,.st242{fill:#900}.st239,.st240,.st241,.st242{fill:#750000}.st240,.st241,.st242{fill:#5c005c}.st241,.st242{fill:#854085}.st242{fill:#4d004d}.st243,.st244,.st245,.st246,.st247,.st248{fill-rule:evenodd;clip-rule:evenodd;fill:#380038}.st244,.st245,.st246,.st247,.st248{fill:#32145a}.st245,.st246,.st247,.st248{fill:#654f83}.st246,.st247,.st248{fill:#28114a}.st247,.st248{fill:#220c3d}.st248{fill:#00188f}.st249,.st250,.st251,.st252,.st253,.st254{fill-rule:evenodd;clip-rule:evenodd;fill:#4052ab}.st250,.st251,.st252,.st253,.st254{fill:#001580}.st251,.st252,.st253,.st254{fill:#001363}.st252,.st253,.st254{fill:#004b50}.st253,.st254{fill:#40787c}.st254{fill:#003d41}.st255,.st256,.st257,.st258,.st259,.st260{fill-rule:evenodd;clip-rule:evenodd;fill:#002f33}.st256,.st257,.st258,.st259,.st260{fill:#004b1c}.st257,.st258,.st259,.st260{fill:#407855}.st258,.st259,.st260{fill:#003c16}.st259,.st260{fill:#00240d}.st260{fill:#505050}.st261,.st262,.st263,.st264,.st265,.st266{fill-rule:evenodd;clip-rule:evenodd;fill:#d2d2d2}.st262,.st263,.st264,.st265,.st266{fill:#f3f3f3}.st263,.st264,.st265,.st266{fill:#e6e6e6}.st264,.st265,.st266{fill:#737373}.st265,.st266{fill:#c2c2c2}.st266{fill:#b2b2b2}.st267{fill:none;stroke:#e6e6e6;stroke-width:.36;stroke-miterlimit:8}.st268,.st269,.st270{fill-rule:evenodd;clip-rule:evenodd;fill:#8e562e}.st269,.st270{fill:#d8b094}.st270{fill:#613d30}.st271{fill:#65aa0d}.st272{fill:#3b930f}.st273{fill:#00a68c}.st274{fill:#008e7b}.st275{fill:#009ae4}.st276{fill:#0089de}.st277{fill:#0060c5}.st278{fill:#0048b3}.st279{fill:#0030a1}.st280{fill:#005959}.st281{fill:#0c7013}.st282{fill:#086416}.st283{fill:#045719}.st284{fill:#522783}.st285{fill:#3d1a68}.st286{fill:#9e008e}.st287{fill:#88007d}.st288{fill:#72006d}.st289{fill:#d80d1a}.st290{fill:#c80912}.st291{fill:#b80409}.st292{fill:#9e83e3}.st293{fill:#8867c8}.st294{fill:#f57800}.st295{fill:#ec6401}.st296{fill:#464646}.st297{fill:#323232}.st298{fill:#939393}.st299{stroke:#a6a6a6;stroke-dasharray:1,1}.st299,.st300,.st301{fill:none;stroke-miterlimit:10}.st300{clip-path:url(#SVGID_102_);stroke-dasharray:1,1;stroke:#a6a6a6}.st301{stroke:#bcbec0}.st302{fill:#d2d2d2}.st303{fill:#8e6b4e}.st304{fill:#4d4c4d}.st305{fill:#2f2f2f}.st306{fill:#9b2438}.st307{fill:#5d5f5e}.st308{fill:#acacac}.st309{fill:#d07f1c}.st310{fill-rule:evenodd;clip-rule:evenodd;fill:#005a93}.st311{fill:#a88763}.st312{fill:#3b3b3b}.st313{fill:#220c3d}.st314{fill:#a996f0}.st315{fill:#3a2621}.st316{fill:#c7b8ff}.st317{fill:#ea6206}.st318{fill:#692a7b}.st319{fill:#0e3c5e}.st320{fill:#fff880}.st321{fill:#fcb71e}.st322{fill:none;stroke:#4d4c4d;stroke-miterlimit:10}.st323{fill:#0757a4}.st324{fill:#393939}.st325{fill:#c2bdbb}.st326{fill:#929292}.st327{fill:#fff200}.st328{fill:#bd3604}.st329{fill:#f08400}.st330,.st331{fill:none;stroke:#737373;stroke-miterlimit:10}.st331{stroke-linejoin:bevel}.st332{clip-path:url(#SVGID_104_);fill:#2488d8}.st333{fill:#69afe5}.st333,.st334,.st335,.st336{clip-path:url(#SVGID_104_)}.st334{stroke:#fff;stroke-width:2;stroke-miterlimit:10;stroke-dasharray:2,3;fill:none}.st335,.st336{fill:#bb9167}.st336{fill:#fff}.st337,.st338,.st339,.st340{clip-path:url(#SVGID_104_);fill:#472176}.st338,.st339,.st340{fill:#4d4e4e}.st339,.st340{fill:#70553a}.st340{fill:#682a7b}.st341{fill:#9b9b9b}.st341,.st342,.st343{clip-path:url(#SVGID_104_)}.st343{fill:#4d4d4d}.st344,.st345,.st346,.st347{clip-path:url(#SVGID_104_);fill:#333}.st345,.st346,.st347{fill:#3c3c3c}.st346,.st347{fill:#5c2d91}.st347{fill:#666}.st348,.st349{clip-path:url(#SVGID_106_)}.st349{fill:none;stroke:#fff;stroke-width:2;stroke-miterlimit:10;stroke-dasharray:2,3}.st350,.st351,.st352{clip-path:url(#SVGID_106_);fill:#bb9167}.st351,.st352{fill:#fff}.st352{fill:#472176}.st353,.st354,.st355,.st356{clip-path:url(#SVGID_106_);fill:#4d4e4e}.st354,.st355,.st356{fill:#682a7b}.st355,.st356{fill:#9b9b9b}.st356{fill:#4d4d4d}.st357,.st358,.st359,.st360{clip-path:url(#SVGID_106_);fill:#333}.st358,.st359,.st360{fill:#3c3c3c}.st359,.st360{fill:#5c2d91}.st360{fill:#666}.st361{fill:#fff;stroke:#69afe5;stroke-width:.5;stroke-miterlimit:10}.st362,.st363,.st364,.st365{clip-path:url(#SVGID_108_)}.st363,.st364,.st365{fill:#bb9167}.st364,.st365{fill:#fff}.st365{fill:#472176}.st366,.st367,.st368,.st369{clip-path:url(#SVGID_108_);fill:#4d4e4e}.st367,.st368,.st369{fill:#682a7b}.st368,.st369{fill:#9b9b9b}.st369{fill:#4d4d4d}.st370,.st371,.st372,.st373{clip-path:url(#SVGID_108_);fill:#333}.st371,.st372,.st373{fill:#3c3c3c}.st372,.st373{fill:#5c2d91}.st373{fill:#666}.st374{fill:#65abe4}.st375{fill:#8cc1eb}.st376,.st377,.st378,.st379{clip-path:url(#SVGID_110_)}.st377,.st378,.st379{fill:#bb9167}.st378,.st379{fill:#fff}.st379{fill:#472176}.st380,.st381,.st382,.st383{clip-path:url(#SVGID_110_);fill:#4d4e4e}.st381,.st382,.st383{fill:#682a7b}.st382,.st383{fill:#9b9b9b}.st383{fill:#4d4d4d}.st384,.st385,.st386,.st387{clip-path:url(#SVGID_110_);fill:#333}.st385,.st386,.st387{fill:#3c3c3c}.st386,.st387{fill:#5c2d91}.st387{fill:#666}</style><switch><g><g id="Layer_1"><path class="st42" d="M136.725 28.839c-1.061-12.694-11.378-22.658-23.957-22.658-9.321 0-17.398 5.475-21.391 13.475a23.991 23.991 0 0 0-12.773-3.674c-11.345 0-20.895 7.906-23.772 18.668a22.71 22.71 0 0 0-10.161-.849c-10.068 1.422-18.059 9.646-19.193 19.751-1.139 10.153 4.459 19.144 12.89 23.087 1.871 1.064 3.847 1.653 7.031 1.976.189.021.378.038.568.054 3.255.285 7.726.331 14.457.331h73.086c1.622 0 3.206-.2 4.734-.568 11.233-2.236 19.72-12.429 19.72-24.672 0-12.789-9.261-23.339-21.239-24.921z"/><path class="st47" d="M134.386 28.854c.676.07 1.667.202 2.371.307-.84-10.843-8.511-19.384-18.032-21.888 8.599 3.028 14.852 11.898 15.661 21.581zM142.736 30.786c7.39 4.14 12.409 12.211 12.409 21.498 0 11.915-8.258 21.835-19.191 24.011-1.486.358-3.028.553-4.607.705H60.221c-2.953-.152-5.456-.162-7.608-.197-2.228.046-4.803.003-7.499-.389-1.89-.218-3.337-.547-4.6-1.036-5.329-1.674-10.628-5.2-14.255-12.483a22.65 22.65 0 0 0 12.11 14.062c1.871 1.064 3.847 1.653 7.031 1.976.189.021.378.038.568.054 3.254.287 7.725.332 14.456.013h73.086c1.622.319 3.206.119 4.734-.248 11.233-2.236 19.719-12.429 19.719-24.672 0-10.548-6.3-19.566-15.227-23.294z"/><path class="st114" d="M8 95h48v41H8z"/><path transform="rotate(-180 61 115.5)" class="st135" d="M56 95h10v41H56z"/><path class="st30" d="M66 100H9.696l4.647 5H66z"/><path class="st36" d="M4 88h56v12H4z"/><path transform="rotate(-180 65 94)" class="st107" d="M60 88h10v12H60z"/><path class="st113" d="M79 118h28.867c6.472 0 12.199-4.629 13.104-11.037 1.097-7.766-4.719-14.448-12.188-14.789C101.705 91.852 96 86.325 96 79.241V53.169"/><path class="st44" d="M104.18 59.796l-1.465 1.364-6.713-7.223-6.715 7.223-1.465-1.364L96.002 51z"/><path class="st77" d="M60 110h2v15h-2z"/><path class="st28" d="M61 113h25v10H61z"/><path class="st117" d="M61 115h25v8H61z"/><path class="st77" d="M96 116.296l-5.299-5.353c-.404-.48-.94-.944-1.638-.944H65.904A1.903 1.903 0 0 0 64 111.903v11.192c0 1.052.852 1.904 1.904 1.904h23.159c.702 0 1.125-.377 1.644-.955l5.293-5.35v-2.398z"/><path class="st39" d="M90.474 111.223A4.433 4.433 0 0 0 88.848 110h-22.98c-1.052.296-1.904 1.149-1.868 2.2v2.247c-.036-1.052.817-1.904 1.868-2.447h22.98c.692.543 1.225.999 1.626 1.47L96 118.727v-2.247l-5.526-5.257z"/><g><path class="st28" d="M117 68h-2v-2h2zM111 66h2v2h-2zM107 66h2v2h-2zM103 66h2v2h-2z"/><path class="st7" d="M99 66h2v2h-2zM91 66h2v2h-2z"/><path class="st28" d="M87 66h2v2h-2zM83 66h2v2h-2zM79 66h2v2h-2zM77 68h-2v-2h2zM111 42h2v2h-2zM107 42h2v2h-2zM103 42h2v2h-2zM99 42h2v2h-2zM95 42h2v2h-2zM91 42h2v2h-2zM87 42h2v2h-2zM83 42h2v2h-2zM79 42h2v2h-2zM77 44h-2v-2h2zM115 62h2v2h-2zM75 62h2v2h-2zM115 58h2v2h-2zM75 58h2v2h-2zM115 54h2v2h-2zM75 54h2v2h-2zM115 50h2v2h-2zM75 50h2v2h-2zM115 46h2v2h-2zM75 46h2v2h-2zM115 42h2v2h-2z"/><g><path class="st28" d="M115 34h2v2h-2zM111 34h2v2h-2zM107 34h2v2h-2zM103 34h2v2h-2zM99 34h2v2h-2zM95 34h2v2h-2zM91 34h2v2h-2zM87 34h2v2h-2zM83 34h2v2h-2zM81 36h-2v-2h2z"/></g><path class="st28" d="M119 42h2v2h-2zM71 42h2v2h-2zM119 38h2v2h-2zM71 38h2v2h-2zM71 34h2v2h-2zM75 34h2v2h-2zM119 34h2v2h-2z"/></g></g></g></switch></svg>