<svg width="427" height="233" viewBox="0 0 427 233" fill="none" xmlns="http://www.w3.org/2000/svg">
<path d="M426.008 1.40674H0V233H426.008V1.40674Z" fill="url(#paint0_radial)"/>
<path d="M228.856 153.22C228.753 153.995 198.287 232.845 198.287 232.845H206.136L237.067 153.22H228.856Z" fill="url(#paint1_linear)"/>
<path d="M225.759 153.22C225.655 153.995 195.189 232.845 195.189 232.845H203.038L233.969 153.22H225.759Z" fill="#D1B77D"/>
<path d="M281.836 153.22C281.681 153.995 285.812 232.845 285.812 232.845H277.963L273.626 153.22H281.836Z" fill="url(#paint2_linear)"/>
<path d="M278.738 153.22C278.583 153.995 282.714 232.845 282.714 232.845H274.813L270.476 153.22H278.738Z" fill="#D1B77D"/>
<path d="M305.434 232.793H303.937C303.937 232.38 300.322 209.04 310.753 203.515C321.184 197.99 322.991 202.482 323.507 208.524C324.024 214.565 323.507 224.996 320.409 228.456C320.409 228.456 335.745 227.371 336.52 229.592C336.52 229.592 337.449 232.019 335.539 232.948L305.434 232.793Z" fill="#703D35"/>
<path d="M325.831 192C325.779 192.413 321.235 210.383 334.868 233H339.153C339.153 233 338.482 230.521 337.449 229.643C336.468 228.766 328.103 214.359 329.239 196.957C329.239 196.957 330.788 191.535 329.239 190.709C327.69 189.883 326.089 190.089 325.831 192Z" fill="url(#paint3_linear)"/>
<path d="M285.812 155.131H288.239L312.767 232.845H310.34L285.812 155.131Z" fill="url(#paint4_linear)"/>
<path d="M279.72 154.615C280.133 154.873 303.731 232.845 303.731 232.845H310.341L285.813 155.131L279.72 154.615Z" fill="#D1B77D"/>
<path d="M298.876 150.535H325.831L347.674 50.772H213.004L190.696 150.535H298.876Z" fill="#E2E2E2"/>
<path d="M190.696 150.38L194.569 153.22H329.084L325.831 150.38H190.696Z" fill="url(#paint5_linear)"/>
<path d="M329.084 153.22L350.359 54.0766C350.359 54.0766 347.777 50.0489 347.674 50.5653C347.519 51.1333 325.831 150.38 325.831 150.38L329.084 153.22Z" fill="url(#paint6_linear)"/>
<path d="M211.197 149.864L209.751 153.22V158.126H296.243V153.22L297.431 149.864H211.197Z" fill="#D1B77D"/>
<path d="M296.243 158.126H307.242V153.22H299.083L299.754 149.864H297.431L296.243 153.22V158.126Z" fill="url(#paint7_linear)"/>
<path d="M189.87 190.399H168.44L160.075 139.33V109.329L164.103 104.991L174.947 145.526L189.87 190.399Z" fill="#84A09D"/>
<path d="M165.498 153.221C165.653 153.221 177.374 152.808 177.374 152.808C177.374 152.808 167.873 118.469 167.615 117.746C167.357 117.023 163.742 103.855 163.587 103.494C163.432 103.132 161.935 100.706 161.47 100.241C161.212 100.034 159.714 100.602 159.25 100.964C158.785 101.325 158.01 101.996 158.01 102.306C158.01 102.616 157.391 120.844 157.391 120.844L157.959 150.897L165.498 153.221Z" fill="#F8838B"/>
<path d="M173.088 228.25C173.088 228.25 169.474 231.193 169.164 233H189.716C189.716 233 189.819 232.071 188.167 231.451C186.514 230.831 179.078 229.282 178.562 228.921C178.046 228.559 176.6 228.25 176.6 228.25H173.088Z" fill="#D15D68"/>
<path d="M143.81 228.25C143.81 228.25 140.196 231.193 139.886 233H160.437C160.437 233 160.541 232.071 158.888 231.451C157.236 230.831 149.8 229.282 149.284 228.921C148.767 228.559 147.322 228.25 147.322 228.25H143.81Z" fill="#D15D68"/>
<path d="M173.553 227.527C173.656 228.146 172.83 229.644 174.276 229.85C175.722 230.057 177.374 227.527 177.167 227.269C176.961 227.01 173.553 227.527 173.553 227.527Z" fill="#B97F7F"/>
<path d="M144.223 227.527C144.326 228.146 143.5 229.644 144.946 229.85C146.392 230.057 148.044 227.527 147.837 227.269C147.631 227.01 144.223 227.527 144.223 227.527Z" fill="#B97F7F"/>
<path d="M177.374 152.807C177.374 152.807 195.137 187.869 177.374 228.146H173.191C173.191 228.146 188.166 202.327 170.764 167.214L167.356 166.852C167.356 166.852 166.788 200.262 147.682 228.146C147.682 228.146 143.706 228.817 143.706 228.146C143.706 227.475 166.84 189.057 157.338 156.886V152.807H177.374Z" fill="#3195E3"/>
<path d="M221.834 108.606C221.318 108.916 220.337 109.174 220.027 109.277C218.891 109.587 216.051 110.31 216.051 110.31C216.051 110.31 218.22 114.854 218.478 114.699C218.736 114.544 219.614 113.873 219.614 113.873C219.562 113.77 220.492 112.427 220.905 112.427C221.008 112.427 221.318 112.53 221.473 112.634C220.647 111.549 220.698 110 221.834 108.606Z" fill="#B97F7F"/>
<path d="M213.262 120.844C213.623 120.689 219.768 117.384 220.956 115.629C220.956 115.629 215.637 108.399 215.534 108.503C215.43 108.606 213.985 111.498 213.985 111.498L213.262 120.844Z" fill="#F8838B"/>
<path d="M199.939 112.375C199.939 112.375 212.797 105.197 231.645 101.531C231.645 101.531 233.142 103.493 232.419 105.766C232.419 105.766 197.512 116.145 199.939 112.375Z" fill="#D1B77D"/>
<path d="M231.645 101.531C231.645 101.531 239.855 100.86 239.906 100.963C239.958 101.067 241.352 101.893 240.784 103.235L232.419 105.766L231.645 101.531Z" fill="#84A09D"/>
<path d="M240.217 100.964C240.217 100.964 243.676 98.9498 246.103 99.1047C248.53 99.2596 251.835 101.17 253.591 100.551C255.347 99.9309 256.534 99.9309 255.811 100.602C255.14 101.222 253.591 102.668 250.906 103.442C248.221 104.217 240.733 103.339 240.733 103.339L240.217 100.964Z" fill="#7C485C"/>
<path d="M216.205 105.559L221.111 104.062C221.111 104.062 225.5 104.785 227.152 104.475C228.805 104.113 230.147 101.841 232.626 101.377C235.104 100.912 233.607 99.5692 232.419 99.3627C231.232 99.2078 229.734 97.8136 226.016 99.0529C222.298 100.344 217.289 100.963 216.205 105.559Z" fill="#B97F7F"/>
<path d="M224.364 112.685C226.43 112.065 229.631 107.728 228.805 106.85C227.979 105.972 227.204 105.559 224.055 106.85C224.055 106.85 222.815 107.986 221.628 108.709C220.492 110.103 220.492 111.446 221.369 112.478C221.783 112.736 222.712 113.15 224.364 112.685Z" fill="#B97F7F"/>
<path d="M164.361 105.766C164.361 106.024 180.369 129.416 213.933 111.497L215.224 122.083C215.224 122.083 181.453 134.631 165.91 111.446L164.361 105.766Z" fill="#C1E5E2"/>
<path d="M155.79 104.062C155.79 104.062 119.85 125.646 140.608 152.085C140.608 152.085 149.8 147.024 149.49 146.663C149.18 146.301 125.066 136.18 154.137 108.554L155.79 104.062Z" fill="#C1E5E2"/>
<path d="M151.813 190.4H169.319C169.112 179.143 167.976 128.28 164.516 117.229C160.592 104.837 158.526 100.706 158.526 100.706C158.526 100.706 154.189 102.719 152.691 116.971C151.245 130.449 153.518 175.58 151.813 190.4Z" fill="#C1E5E2"/>
<path d="M175.205 149.089C176.393 152.446 187.392 186.681 188.424 190.399H192.142C190.903 186.681 178.975 151.826 177.322 148.779C175.567 145.578 167.563 113.614 165.911 107.676C164.258 101.738 161.47 100.24 161.47 100.24C162.967 102.254 165.652 112.065 165.911 113.614C166.169 115.163 174.018 145.526 175.205 149.089Z" fill="#C1E5E2"/>
<path d="M152.433 163.496C152.433 163.496 131.623 156.319 137.045 147.695C137.045 147.695 137.561 147.23 142.622 147.695C145.307 147.953 148.044 144.597 145.307 142.17C144.636 141.55 148.508 139.175 152.949 140.001C157.442 140.879 166.581 143.358 172.52 148.78C178.51 154.201 176.754 160.036 173.501 161.947C170.299 163.858 162.089 166.956 152.433 163.496Z" fill="#D1B77D"/>
<path d="M151.813 144.597C151.452 144.597 150.471 144.752 149.025 146.404C147.579 148.057 149.903 148.522 151.245 148.47C152.588 148.47 153.931 146.663 153.569 146.559C153.259 146.353 151.813 144.597 151.813 144.597Z" fill="#5E4F32"/>
<path d="M150.781 144.803C150.781 144.803 148.302 147.179 150.626 148.16C152.95 149.141 155.428 147.747 155.79 146.301C156.151 144.855 153.879 143.564 150.781 144.803Z" fill="#B97F7F"/>
<path d="M157.391 146.869C159.198 147.85 159.095 149.193 160.954 149.089C162.864 148.986 165.033 149.967 165.085 148.418C165.188 146.869 168.699 147.695 165.859 146.353C163.019 144.958 162.606 144.803 160.024 145.268C157.494 145.785 155.687 145.939 157.391 146.869Z" fill="#2ED0E9"/>
<path d="M168.079 152.807C169.06 153.943 168.544 154.46 170.455 154.615C172.365 154.77 174.482 154.511 173.14 152.807C171.745 151.103 172.365 149.658 169.422 149.967C166.53 150.329 164.155 150.484 165.497 151.413C166.84 152.394 168.079 152.807 168.079 152.807Z" fill="#7FE69D"/>
<path d="M162.554 158.074C164.775 159.468 164.516 159.726 166.427 159.262C168.337 158.849 168.751 158.074 168.751 158.074C168.751 158.074 169.319 155.492 166.427 155.389C163.587 155.286 160.592 154.769 161.573 156.422C162.554 158.074 162.554 158.074 162.554 158.074Z" fill="#3195E3"/>
<path d="M152.433 158.487C156.048 160.45 156.771 160.501 158.114 159.469C159.456 158.436 159.714 158.746 158.578 157.351C157.442 156.009 159.818 154.77 155.532 155.234C151.297 155.699 149.852 156.215 151.143 157.351C152.433 158.487 152.433 158.487 152.433 158.487Z" fill="#E92F3A"/>
<path d="M144.222 154.666C147.166 155.493 147.682 155.131 148.199 154.253C148.715 153.375 150.987 151.93 147.063 151.258C143.19 150.587 143.086 148.78 141.899 150.742C140.711 152.704 139.214 152.652 141.486 153.582C143.706 154.563 144.222 154.666 144.222 154.666Z" fill="#F0BB32"/>
<path d="M318.602 175.218C316.381 176.405 312.56 181.208 311.011 184.151C309.462 187.094 304.143 195.098 297.43 204.444C290.718 213.842 293.971 232.845 293.971 232.845H307.551C307.551 232.845 313.644 226.907 314.781 220.71C315.917 214.514 327.328 199.694 330.633 193.033C332.44 189.366 332.182 186.268 331.718 183.841C331.201 183.738 330.685 183.635 330.22 183.531C325.211 182.189 321.803 178.832 318.602 175.218Z" fill="url(#paint8_linear)"/>
<path d="M330.892 179.349C331.305 177.18 334.145 173.049 332.699 172.481C331.254 171.861 326.4 169.641 326.09 167.937C325.728 166.233 323.611 165.871 321.804 164.735C319.997 163.599 314.988 160.243 312.251 159.055C309.514 157.868 307.759 159.055 307.759 159.055C306.313 164.839 314.213 167.42 316.279 168.608C318.344 169.796 319.997 171.293 319.997 173.255C319.997 175.218 318.706 175.218 318.706 175.218C318.706 175.218 318.654 175.218 318.654 175.269C321.856 178.884 325.264 182.24 330.221 183.583C330.686 183.686 331.202 183.789 331.718 183.893C331.305 181.827 330.685 180.33 330.892 179.349Z" fill="url(#paint9_linear)"/>
<path d="M321.493 191.845C321.39 192.258 315.71 210.28 327.845 233H332.131C332.131 233 331.614 230.522 330.685 229.644C329.755 228.766 322.319 214.307 324.591 196.854C324.591 196.854 326.502 191.432 325.005 190.554C323.559 189.676 321.906 189.883 321.493 191.845Z" fill="#B77163"/>
<path d="M294.023 232.793H292.526C292.526 232.38 288.911 209.04 299.342 203.515C309.772 197.99 311.58 202.482 312.096 208.524C312.613 214.565 312.096 224.996 308.998 228.456C308.998 228.456 324.334 227.371 325.109 229.592C325.109 229.592 326.038 232.019 324.128 232.948L294.023 232.793Z" fill="#B77163"/>
<path d="M292.68 232.69C292.68 232.69 267.946 235.84 269.34 216.786C269.34 216.786 270.269 204.445 280.958 202.224C280.958 202.224 284.625 201.295 283.127 202.689C282.249 203.515 279.874 203.619 278.17 204.703C277.344 205.219 266.965 212.397 273.161 223.138C279.358 233.878 292.164 227.785 292.164 227.785L292.68 232.69Z" fill="#B77163"/>
<path d="M309.204 160.605C309.101 160.398 308.791 158.849 308.12 158.901C307.397 159.004 307.552 160.553 307.604 160.346C307.655 160.14 305.693 155.441 307.242 152.549C308.791 149.658 309.05 148.418 310.96 149.451C312.871 150.484 320.358 155.131 323.353 155.957C326.348 156.784 329.24 155.338 330.531 156.784C331.822 158.229 338.741 162.205 335.953 169.125C333.164 176.044 333.629 176.87 331.822 177.232C330.066 177.593 326.038 173.772 325.264 171.449C324.489 169.125 325.78 168.247 322.785 167.008C319.79 165.768 311.218 164.736 309.204 160.605Z" fill="#B77163"/>
<path d="M332.08 164.529C332.08 164.529 323.25 174.444 328.156 180.692C328.156 180.692 329.705 182.396 331.357 182.241C331.357 182.241 331.202 181.518 330.944 180.64C330.737 179.865 330.789 179.194 331.099 178.42L333.371 167.989C333.371 167.989 334.817 164.942 332.132 164.478" fill="url(#paint10_linear)"/>
<path d="M332.647 164.271C332.957 164.323 333.783 164.374 335.745 164.891C337.707 165.407 340.083 168.608 341.115 169.848C342.148 171.087 341.58 172.223 339.515 175.321C337.449 178.42 336.675 184.668 333.112 181.26C329.549 177.851 330.22 173.256 331.563 169.951C332.905 166.646 334.144 165.717 333.112 165.304C332.079 164.891 331.666 164.064 332.647 164.271Z" fill="#B77163"/>
<path d="M124.292 204.032H97.9053V232.897H124.292V204.032Z" fill="#D8D8D8"/>
<path d="M104.256 212.655C104.256 214.101 103.481 215.237 102.552 215.237C97.9046 215.237 101.777 213.688 100.848 212.655C97.9046 209.454 101.622 210.073 102.552 210.073C103.481 210.073 104.256 211.261 104.256 212.655Z" fill="#A5A5A5"/>
<path d="M125.014 225.564C108.49 225.564 101.468 212.81 101.364 212.655L101.829 212.396C101.881 212.551 109.213 225.771 126.512 224.996C126.563 224.996 129.197 224.893 129.92 223.189C130.436 221.898 129.403 218.696 124.291 213.481L124.24 212.81C128.474 217.147 131.211 221.278 130.384 223.344C129.558 225.409 126.667 225.512 126.512 225.512C126.047 225.564 125.531 225.564 125.014 225.564Z" fill="#A5A5A5"/>
<path d="M100.849 215.236C101.79 215.236 102.553 214.081 102.553 212.655C102.553 211.229 101.79 210.073 100.849 210.073C99.9075 210.073 99.1445 211.229 99.1445 212.655C99.1445 214.081 99.9075 215.236 100.849 215.236Z" fill="#BFBFBF"/>
<path d="M125.789 202.276H96.1494V204.909H125.789V202.276Z" fill="#A5A5A5"/>
<path d="M99.4541 202.276C99.4541 202.276 99.5057 201.759 102.604 201.45C105.702 201.14 109.627 201.553 112.209 201.45C114.79 201.346 118.353 201.191 119.954 201.346C121.555 201.45 124.395 201.604 124.292 202.327C124.188 203.05 124.86 209.66 123.311 209.97C121.761 210.28 121.761 207.594 121.761 207.594C121.761 207.594 120.109 207.285 120.006 208.162C119.902 209.04 120.419 220.659 118.147 220.607C115.875 220.555 117.062 208.266 116.081 208.214C115.1 208.162 113.499 209.247 113.809 210.951C114.119 212.655 113.293 214.152 111.847 214.204C110.401 214.256 109.162 211.932 109.317 208.989C109.472 206.045 110.091 203.98 108.232 203.67C107.148 203.412 100.952 201.966 99.4541 202.276Z" fill="#E92F3A"/>
<path d="M79.2109 204.032H52.8242V232.897H79.2109V204.032Z" fill="url(#paint11_linear)"/>
<path d="M72.9111 212.655C72.9111 214.101 73.6857 215.237 74.6152 215.237C79.2625 215.237 75.3897 213.688 76.3192 212.655C79.2625 209.454 75.5446 210.073 74.6152 210.073C73.6341 210.073 72.9111 211.261 72.9111 212.655Z" fill="#A5A5A5"/>
<path d="M52.1013 225.564C68.6253 225.564 75.6479 212.81 75.7512 212.655L75.2865 212.396C75.2348 212.551 67.9024 225.771 50.6039 224.996C50.5522 224.996 47.9187 224.893 47.1958 223.189C46.6794 221.898 47.7122 218.696 52.8243 213.481L52.8759 212.81C48.6416 217.147 45.9049 221.278 46.7311 223.344C47.5573 225.409 50.4489 225.512 50.6039 225.512C51.0686 225.564 51.585 225.564 52.1013 225.564Z" fill="#A5A5A5"/>
<path d="M76.3193 215.236C77.2604 215.236 78.0233 214.081 78.0233 212.655C78.0233 211.229 77.2604 210.073 76.3193 210.073C75.3782 210.073 74.6152 211.229 74.6152 212.655C74.6152 214.081 75.3782 215.236 76.3193 215.236Z" fill="#BFBFBF"/>
<path d="M81.0187 202.276H51.3789V204.909H81.0187V202.276Z" fill="#A5A5A5"/>
<path d="M77.7133 202.276C77.7133 202.276 77.6617 201.759 74.5635 201.45C71.4652 201.14 67.5408 201.553 64.9589 201.45C62.3771 201.346 58.8141 201.191 57.2133 201.346C55.6126 201.45 52.7725 201.604 52.8758 202.327C52.9791 203.05 52.3078 209.66 53.8569 209.97C55.406 210.28 55.406 207.594 55.406 207.594C55.406 207.594 57.0584 207.285 57.1617 208.162C57.265 209.04 56.7486 220.659 59.0206 220.607C61.2927 220.555 60.105 208.266 61.0861 208.214C62.0672 208.162 63.668 209.247 63.3582 210.951C63.0483 212.655 63.8745 214.152 65.3204 214.204C66.7662 214.256 68.0055 211.932 67.8506 208.989C67.6957 206.045 67.0761 203.98 68.935 203.67C70.0194 203.412 76.2159 201.966 77.7133 202.276Z" fill="#2ED0E9"/>
<path d="M94.4453 209.505H73.1191V232.845H94.4453V209.505Z" fill="#D8D8D8"/>
<path d="M78.2823 216.528C78.2823 217.664 77.6626 218.593 76.8881 218.593C73.1185 218.593 76.2684 217.354 75.4938 216.528C73.1185 213.894 76.1135 214.462 76.8881 214.462C77.6626 214.462 78.2823 215.392 78.2823 216.528Z" fill="#A5A5A5"/>
<path d="M95.0648 226.959C81.6907 226.959 76.0106 216.631 75.959 216.528L76.3204 216.321C76.3721 216.425 82.3104 227.165 96.3041 226.494C96.3557 226.494 98.4728 226.391 99.0409 224.996C99.454 223.964 98.6278 221.33 94.4968 217.147L94.4451 216.631C97.8532 220.142 100.074 223.447 99.4023 225.151C98.731 226.804 96.4073 226.907 96.3041 226.907C95.891 226.959 95.4779 226.959 95.0648 226.959Z" fill="#A5A5A5"/>
<path d="M75.4938 218.593C76.2638 218.593 76.888 217.669 76.888 216.528C76.888 215.387 76.2638 214.462 75.4938 214.462C74.7238 214.462 74.0996 215.387 74.0996 216.528C74.0996 217.669 74.7238 218.593 75.4938 218.593Z" fill="#BFBFBF"/>
<path d="M95.6843 208.111H71.7246V210.228H95.6843V208.111Z" fill="#A5A5A5"/>
<path d="M74.4102 208.111C74.4102 208.111 74.4618 207.698 76.992 207.44C79.5222 207.181 82.6721 207.543 84.7892 207.44C86.8547 207.336 89.7464 207.233 91.0374 207.336C92.3283 207.44 94.652 207.543 94.5487 208.111C94.4454 208.679 95.0134 214.049 93.7741 214.256C92.5348 214.462 92.5348 212.345 92.5348 212.345C92.5348 212.345 91.1923 212.087 91.1406 212.81C91.089 213.533 91.4505 222.931 89.6432 222.879C87.8359 222.827 88.7653 212.913 87.9908 212.861C87.2162 212.81 85.9253 213.739 86.1835 215.082C86.4416 216.476 85.7704 217.664 84.6343 217.715C83.4983 217.767 82.4656 215.908 82.6205 213.481C82.7754 211.054 83.2401 209.402 81.7427 209.195C80.6066 209.04 75.5978 207.853 74.4102 208.111Z" fill="#F0BB32"/>
<path d="M371.53 127.143C372.3 127.143 372.924 126.519 372.924 125.749C372.924 124.979 372.3 124.355 371.53 124.355C370.76 124.355 370.136 124.979 370.136 125.749C370.136 126.519 370.76 127.143 371.53 127.143Z" stroke="#CE00EF" stroke-width="0.2687" stroke-miterlimit="10"/>
<path d="M273.626 19.7381C274.396 19.7381 275.02 19.1139 275.02 18.3439C275.02 17.5739 274.396 16.9497 273.626 16.9497C272.856 16.9497 272.231 17.5739 272.231 18.3439C272.231 19.1139 272.856 19.7381 273.626 19.7381Z" stroke="#CE00EF" stroke-width="0.2687" stroke-miterlimit="10"/>
<path d="M87.7829 122.238C88.5529 122.238 89.1771 121.614 89.1771 120.844C89.1771 120.074 88.5529 119.45 87.7829 119.45C87.0129 119.45 86.3887 120.074 86.3887 120.844C86.3887 121.614 87.0129 122.238 87.7829 122.238Z" stroke="#CE00EF" stroke-width="0.2687" stroke-miterlimit="10"/>
<path d="M315.607 30.9946C316.072 30.9946 316.485 31.0979 316.898 31.2012C316.743 30.5299 316.64 29.8069 316.64 29.0324C316.64 23.8687 320.822 19.686 325.986 19.686C330.788 19.686 334.764 23.3523 335.281 27.9996C336.21 27.3284 337.346 26.9153 338.637 26.9153C341.735 26.9153 344.266 29.3938 344.369 32.4404C344.834 32.1823 345.35 32.0273 345.918 32.0273C347.674 32.0273 349.068 33.4216 349.068 35.1772C349.068 36.9329 347.674 38.3271 345.918 38.3271H315.659C313.593 38.3271 311.941 36.6747 311.941 34.6092C311.889 32.6986 313.541 30.9946 315.607 30.9946Z" stroke="#B0C1FF" stroke-width="0.6915" stroke-miterlimit="10" stroke-linecap="round" stroke-linejoin="round"/>
<path d="M99.5567 63.5783C99.7632 63.5783 99.9698 63.6299 100.125 63.6815C100.073 63.3717 100.021 63.0619 100.021 62.7521C100.021 60.48 101.88 58.6211 104.152 58.6211C106.27 58.6211 108.025 60.2218 108.283 62.2873C108.696 61.9775 109.213 61.8226 109.781 61.8226C111.175 61.8226 112.259 62.907 112.311 64.2496C112.518 64.1463 112.724 64.0946 112.982 64.0946C113.757 64.0946 114.377 64.7143 114.377 65.4889C114.377 66.2634 113.757 66.8831 112.982 66.8831H99.5567C98.6272 66.8831 97.9043 66.1601 97.9043 65.2307C97.9043 64.3012 98.6272 63.5783 99.5567 63.5783Z" stroke="#B0C1FF" stroke-width="0.4356" stroke-miterlimit="10" stroke-linecap="round" stroke-linejoin="round"/>
<path d="M206.445 9.56544C206.187 9.56544 205.929 9.61707 205.722 9.77198C206.187 8.94579 206.445 7.96468 206.445 6.93193C206.445 3.78206 203.863 1.2002 200.714 1.2002C197.564 1.2002 194.982 3.78206 194.982 6.93193C194.982 7.13848 194.982 7.2934 195.033 7.49994C194.724 7.39667 194.414 7.2934 194.052 7.2934C192.555 7.2934 191.367 8.48105 191.367 9.97853C191.367 11.476 192.555 12.6637 194.052 12.6637H206.445C207.323 12.6637 207.994 11.9924 207.994 11.1146C207.994 10.2884 207.323 9.56544 206.445 9.56544Z" stroke="#B0C1FF" stroke-width="0.4356" stroke-miterlimit="10" stroke-linecap="round" stroke-linejoin="round"/>
<path d="M163.122 78.3462C163.122 78.3462 162.657 77.3651 164.206 77.1585C165.704 76.952 166.53 81.5993 165.91 82.3739C165.291 83.1485 164.465 83.4066 164 82.3739C163.483 81.2895 163.122 78.3462 163.122 78.3462Z" fill="#B97F7F"/>
<path d="M162.399 81.5995C162.864 83.0453 163.896 83.9232 164.723 83.5617C165.549 83.2002 165.652 80.9798 165.239 79.534C164.774 78.0882 164 77.9332 163.122 78.2947C162.296 78.6562 161.986 80.1536 162.399 81.5995Z" fill="url(#paint12_linear)"/>
<path d="M156.462 93.3211C156.255 93.5276 158.94 99.6724 158.579 102.564C158.217 105.456 162.09 109.897 162.865 109.484C163.639 109.07 162.555 103.39 161.935 101.79C161.315 100.189 160.593 96.5226 160.593 95.6964C160.593 94.8702 158.837 90.7392 156.462 93.3211Z" fill="#B97F7F"/>
<path d="M150.161 80.3599C150.212 80.5148 154.292 98.8461 163.277 96.5224C172.261 94.2504 164.619 80.8763 164 79.069C163.38 77.2617 163.173 74.2667 161.986 72.6143C160.798 70.9619 158.784 67.8637 154.653 68.3801C150.522 68.9481 148.302 72.8725 150.161 80.3599Z" fill="#B97F7F"/>
<path d="M151.556 82.5289C151.556 82.5289 150.523 80.7733 148.355 82.1675C146.186 83.5617 148.355 86.7115 148.355 86.7115C148.355 86.7115 150.007 89.1901 152.382 88.2607C154.809 87.3312 151.556 82.5289 151.556 82.5289Z" fill="#B97F7F"/>
<path d="M149.799 81.6511C149.799 81.6511 152.175 84.9558 152.536 84.2846C152.898 83.6133 152.381 82.8387 151.865 81.4445C151.349 80.0503 150.574 77.8299 150.987 77.1586C150.987 77.1586 154.55 76.7971 152.64 74.7833C152.64 74.7833 155.015 74.3186 153.982 72.4596C153.982 72.4596 159.559 74.9898 160.385 71.5301C160.385 71.5301 161.624 73.6989 161.986 72.6145C161.986 72.6145 162.967 74.5767 163.328 76.1775C163.328 76.1775 164.206 76.0226 164.413 75.3513C164.619 74.68 164.516 72.4596 163.225 72.4596C163.225 72.4596 162.709 70.7556 163.225 70.2908C163.742 69.8777 164.31 66.7795 162.296 66.005C160.282 65.282 159.611 66.3664 159.611 66.3664C159.611 66.3664 162.296 62.2871 159.507 60.8929C156.719 59.4987 151.555 60.1699 150.936 61.4092C150.368 62.4936 150.832 63.3198 150.832 63.3198C150.832 63.3198 150.419 62.442 148.663 62.4936C148.302 62.4936 145.462 63.5264 143.655 64.4558C141.899 65.3853 138.801 67.9672 139.369 70.2392C139.369 70.2392 137.975 71.4269 138.801 72.976C139.627 74.5251 140.97 77.6233 144.274 76.3324C144.274 76.3324 142.106 77.675 143.396 79.7405C144.739 81.806 145.72 81.7027 146.65 81.2896C147.579 80.9798 149.799 81.6511 149.799 81.6511Z" fill="#4F3544"/>
<path d="M161.109 89.8613L162.193 90.0679C162.554 90.1195 162.916 90.1711 163.226 90.1711C163.587 90.1711 163.949 90.1711 164.259 90.0679C164.568 89.9646 164.878 89.8097 165.136 89.5515C165.188 89.4999 165.291 89.4999 165.343 89.6031C165.395 89.7064 165.395 89.8097 165.343 89.8613C165.085 90.2744 164.723 90.5842 164.362 90.7392C164 90.8941 163.587 90.9457 163.174 90.9457C162.4 90.9457 161.625 90.7392 160.954 90.2744C160.85 90.2228 160.85 90.1195 160.902 90.0162C160.954 89.8613 161.005 89.8613 161.109 89.8613Z" fill="#4F3544"/>
<path d="M164.155 79.6885C164.516 81.6507 164.361 83.3031 163.742 83.458C163.122 83.6129 162.141 81.0827 161.728 79.1205C161.366 77.1583 161.728 76.5386 162.347 76.3837C163.329 76.1772 163.742 77.7779 164.155 79.6885Z" fill="url(#paint13_linear)"/>
<path d="M162.764 80.8697C163.072 80.8092 163.25 80.3971 163.162 79.9494C163.074 79.5017 162.753 79.1878 162.445 79.2483C162.137 79.3089 161.959 79.7209 162.047 80.1686C162.135 80.6163 162.456 80.9302 162.764 80.8697Z" fill="#3D2227"/>
<path d="M154.447 81.6508C155.118 83.5097 156.719 84.6457 158.061 84.181C159.404 83.7163 159.559 80.8246 158.887 78.9656C158.216 77.1067 156.925 76.9518 155.634 77.4165C154.292 77.8813 153.775 79.7918 154.447 81.6508Z" fill="url(#paint14_linear)"/>
<path d="M157.183 81.9527C157.491 81.8922 157.669 81.4802 157.581 81.0324C157.493 80.5847 157.172 80.2708 156.864 80.3313C156.556 80.3919 156.378 80.8039 156.466 81.2516C156.554 81.6993 156.875 82.0132 157.183 81.9527Z" fill="#3D2227"/>
<path d="M160.902 83.4067C160.592 81.4445 160.902 79.7405 161.625 79.6372C162.348 79.5339 163.742 81.806 164.052 83.7682C164.362 85.7304 163.845 86.0402 163.122 86.1435C162.399 86.2468 161.212 85.3689 160.902 83.4067Z" fill="url(#paint15_linear)"/>
<path d="M148.509 85.9886C149.026 87.4345 150.265 88.3123 151.246 87.9509C152.227 87.5894 152.382 85.369 151.814 83.9232C151.298 82.4773 150.317 82.3224 149.335 82.6839C148.354 83.0453 147.993 84.5428 148.509 85.9886Z" fill="url(#paint16_linear)"/>
<path d="M161.47 100.292C161.47 100.292 164.568 102.822 165.911 106.024L165.446 107.779L167.615 110.568C167.615 110.568 169.422 123.529 169.422 127.556C169.422 127.556 164 104.836 161.47 100.292Z" fill="#C1E5E2"/>
<path d="M161.47 100.292C161.47 100.292 164.568 102.822 165.911 106.024L165.446 107.779L167.615 110.568C167.615 110.568 169.422 123.529 169.422 127.556C169.422 127.556 164 104.836 161.47 100.292Z" fill="url(#paint17_linear)"/>
<path d="M158.475 100.654C158.475 100.654 155.531 105.146 155.531 107.573L158.836 108.658C158.836 108.658 157.287 111.549 157.184 112.066C157.08 112.582 163.742 119.192 166.427 128.848C166.427 128.848 167.408 118.83 158.475 100.654Z" fill="#C1E5E2"/>
<path d="M158.475 100.654C158.475 100.654 155.531 105.146 155.531 107.573L158.836 108.658C158.836 108.658 157.287 111.549 157.184 112.066C157.08 112.582 163.742 119.192 166.427 128.848C166.427 128.848 167.408 118.83 158.475 100.654Z" fill="url(#paint18_linear)"/>
<path d="M327.254 158.936C327.921 158.551 328.277 157.919 328.049 157.524C327.82 157.129 327.095 157.121 326.428 157.506C325.761 157.891 325.406 158.523 325.634 158.918C325.862 159.313 326.587 159.321 327.254 158.936Z" fill="#3D2227"/>
<path d="M307.913 151.207C307.862 151.258 307.087 152.394 307.242 153.014C307.345 153.634 308.172 153.117 309.101 153.014C310.031 152.911 311.476 153.479 311.838 153.169C312.251 152.859 313.026 150.897 312.612 150.329C312.199 149.761 310.96 148.573 309.979 148.728C308.998 148.935 307.913 151.207 307.913 151.207Z" fill="#3D2227"/>
<path d="M317.414 176.044C317.517 176.199 320.099 184.616 331.873 184.719C331.873 184.719 331.511 182.55 330.943 180.588C330.891 180.433 326.657 182.034 319.893 173.824L317.414 176.044Z" fill="#8ED0BE"/>
<path d="M155.429 77.4684C155.429 77.3135 155.739 76.9004 156.255 76.8488C156.771 76.7455 157.236 77.0553 157.236 77.2102C157.236 77.3651 156.823 77.2619 156.307 77.3651C155.842 77.4168 155.429 77.6233 155.429 77.4684Z" fill="#4F3544"/>
<path d="M161.729 76.7457C161.729 76.6424 161.987 76.2809 162.348 76.2293C162.71 76.1776 163.071 76.3842 163.071 76.5391C163.071 76.6424 162.761 76.5907 162.4 76.6424C162.038 76.694 161.729 76.8489 161.729 76.7457Z" fill="#4F3544"/>
<defs>
<radialGradient id="paint0_radial" cx="0" cy="0" r="1" gradientUnits="userSpaceOnUse" gradientTransform="translate(207.54 237.125) scale(209.538 24.8549)">
<stop offset="0.00121702" stop-color="#00AEE6" stop-opacity="0.3"/>
<stop offset="0.9992" stop-color="#00AEE6" stop-opacity="0"/>
</radialGradient>
<linearGradient id="paint1_linear" x1="198.258" y1="193.04" x2="237.066" y2="193.04" gradientUnits="userSpaceOnUse">
<stop stop-color="#D1B77D"/>
<stop offset="1" stop-color="#90654D"/>
</linearGradient>
<linearGradient id="paint2_linear" x1="292.912" y1="235.152" x2="271.935" y2="167.361" gradientUnits="userSpaceOnUse">
<stop stop-color="#D1B77D"/>
<stop offset="1" stop-color="#90654D"/>
</linearGradient>
<linearGradient id="paint3_linear" x1="334.38" y1="223.109" x2="325.767" y2="194.372" gradientUnits="userSpaceOnUse">
<stop stop-color="#B77163"/>
<stop offset="0.9972" stop-color="#703D35"/>
</linearGradient>
<linearGradient id="paint4_linear" x1="305.472" y1="211.103" x2="285.262" y2="155.25" gradientUnits="userSpaceOnUse">
<stop stop-color="#D1B77D"/>
<stop offset="1" stop-color="#90654D"/>
</linearGradient>
<linearGradient id="paint5_linear" x1="261.457" y1="129.178" x2="259.07" y2="163.173" gradientUnits="userSpaceOnUse">
<stop offset="0.3363" stop-color="#7A7272"/>
<stop offset="1" stop-color="#D8D8D8"/>
</linearGradient>
<linearGradient id="paint6_linear" x1="320.151" y1="72.2327" x2="382.343" y2="176.151" gradientUnits="userSpaceOnUse">
<stop stop-color="#D8D8D8"/>
<stop offset="0.6637" stop-color="#7A7272"/>
</linearGradient>
<linearGradient id="paint7_linear" x1="312.704" y1="156.49" x2="298.123" y2="154.017" gradientUnits="userSpaceOnUse">
<stop stop-color="#D1B77D"/>
<stop offset="1" stop-color="#90654D"/>
</linearGradient>
<linearGradient id="paint8_linear" x1="309.642" y1="204.551" x2="323.456" y2="221.008" gradientUnits="userSpaceOnUse">
<stop stop-color="#B77163"/>
<stop offset="0.9972" stop-color="#703D35"/>
</linearGradient>
<linearGradient id="paint9_linear" x1="321.096" y1="168.256" x2="323.228" y2="163.31" gradientUnits="userSpaceOnUse">
<stop stop-color="#B77163"/>
<stop offset="0.9972" stop-color="#703D35"/>
</linearGradient>
<linearGradient id="paint10_linear" x1="326.691" y1="173.417" x2="333.828" y2="173.417" gradientUnits="userSpaceOnUse">
<stop stop-color="#B77163" stop-opacity="0"/>
<stop offset="0.9972" stop-color="#703D35"/>
</linearGradient>
<linearGradient id="paint11_linear" x1="65.457" y1="218.44" x2="87.3532" y2="218.44" gradientUnits="userSpaceOnUse">
<stop stop-color="#D8D8D8"/>
<stop offset="0.9972" stop-color="#7D7D7D"/>
</linearGradient>
<linearGradient id="paint12_linear" x1="164.797" y1="75.3493" x2="164.093" y2="79.5916" gradientUnits="userSpaceOnUse">
<stop stop-color="#4F3544"/>
<stop offset="1" stop-color="#4F3544" stop-opacity="0"/>
</linearGradient>
<linearGradient id="paint13_linear" x1="160.587" y1="76.3984" x2="162.247" y2="78.633" gradientUnits="userSpaceOnUse">
<stop stop-color="#4F3544"/>
<stop offset="1" stop-color="#4F3544" stop-opacity="0"/>
</linearGradient>
<linearGradient id="paint14_linear" x1="157.955" y1="76.0234" x2="156.868" y2="80.2444" gradientUnits="userSpaceOnUse">
<stop stop-color="#4F3544"/>
<stop offset="1" stop-color="#4F3544" stop-opacity="0"/>
</linearGradient>
<linearGradient id="paint15_linear" x1="164.396" y1="88.9975" x2="162.861" y2="84.6486" gradientUnits="userSpaceOnUse">
<stop stop-color="#4F3544"/>
<stop offset="1" stop-color="#4F3544" stop-opacity="0"/>
</linearGradient>
<linearGradient id="paint16_linear" x1="149.76" y1="81.2296" x2="150.186" y2="85.0029" gradientUnits="userSpaceOnUse">
<stop stop-color="#4F3544"/>
<stop offset="1" stop-color="#4F3544" stop-opacity="0"/>
</linearGradient>
<linearGradient id="paint17_linear" x1="169.969" y1="112.782" x2="162.919" y2="114.544" gradientUnits="userSpaceOnUse">
<stop offset="0.0487201" stop-color="#84A09D"/>
<stop offset="0.5738" stop-color="#84A09D" stop-opacity="0"/>
</linearGradient>
<linearGradient id="paint18_linear" x1="158.06" y1="116.288" x2="166.701" y2="113.275" gradientUnits="userSpaceOnUse">
<stop offset="0.0487201" stop-color="#84A09D"/>
<stop offset="0.5738" stop-color="#84A09D" stop-opacity="0"/>
</linearGradient>
</defs>
</svg>
